
<!DOCTYPE svg PUBLIC "-//W3C//DTD SVG 1.1//EN" "http://www.w3.org/Graphics/SVG/1.1/DTD/svg11.dtd"> <svg width="521px" height="521px" version="1.1" baseProfile="full" xmlns="http://www.w3.org/2000/svg" xmlns:xlink="http://www.w3.org/1999/xlink" xmlns:ev="http://www.w3.org/2001/xml-events"><polygon fill="rgb(246,133,27)" stroke="rgb(246,133,27)" points="285.85510128736496,69.55643980205059 255.9731389284134,69.81635607779026 245.13123035430908,47.996349066495895"></polygon><polygon fill="rgb(246,133,27)" stroke="rgb(246,133,27)" points="245.13123035430908,47.996349066495895 298.1012452840805,47.45964127779007 285.85510128736496,69.55643980205059"></polygon><polygon fill="rgb(228,118,27)" stroke="rgb(228,118,27)" points="255.9731389284134,69.81635607779026 183.253032207489,15.841090083122253 245.13123035430908,47.996349066495895"></polygon><polygon fill="rgb(226,118,27)" stroke="rgb(226,118,27)" points="358.9303774833679,13.682666510343552 285.85510128736496,69.55643980205059 298.1012452840805,47.45964127779007"></polygon><polygon fill="rgb(118,61,22)" stroke="rgb(118,61,22)" points="211.0843641757965,97.12223386764526 177.0557370185852,86.61389510333538 175.5888819694519,79.03478556871414"></polygon><polygon fill="rgb(118,61,22)" stroke="rgb(118,61,22)" points="213.42804598808289,52.572469770908356 211.0843641757965,97.12223386764526 175.5888819694519,79.03478556871414"></polygon><polygon fill="rgb(118,61,22)" stroke="rgb(118,61,22)" points="225.62255835533142,97.94716882705688 211.0843641757965,97.12223386764526 213.42804598808289,52.572469770908356"></polygon><polygon fill="rgb(118,61,22)" stroke="rgb(118,61,22)" points="177.79237461090088,95.7297328710556 177.0557370185852,86.61389510333538 211.0843641757965,97.12223386764526"></polygon><polygon fill="rgb(118,61,22)" stroke="rgb(118,61,22)" points="177.79237461090088,95.7297328710556 211.0843641757965,97.12223386764526 182.00113821029663,109.2415542602539"></polygon><polygon fill="rgb(118,61,22)" stroke="rgb(118,61,22)" points="182.00113821029663,109.2415542602539 211.0843641757965,97.12223386764526 225.62255835533142,97.94716882705688"></polygon><polygon fill="rgb(118,61,22)" stroke="rgb(118,61,22)" points="367.917197227478,77.46960927546024 332.2925341129303,96.28192465007305 328.95275044441223,51.43417897820473"></polygon><polygon fill="rgb(118,61,22)" stroke="rgb(118,61,22)" points="328.95275044441223,51.43417897820473 332.2925341129303,96.28192465007305 317.07805728912354,97.31867401301861"></polygon><polygon fill="rgb(118,61,22)" stroke="rgb(118,61,22)" points="332.2925341129303,96.28192465007305 367.917197227478,77.46960927546024 366.39981603622437,85.1674842685461"></polygon><polygon fill="rgb(118,61,22)" stroke="rgb(118,61,22)" points="365.60748863220215,94.40761329233646 332.2925341129303,96.28192465007305 366.39981603622437,85.1674842685461"></polygon><polygon fill="rgb(118,61,22)" stroke="rgb(118,61,22)" points="365.60748863220215,94.40761329233646 361.30522775650024,108.13889898359776 332.2925341129303,96.28192465007305"></polygon><polygon fill="rgb(118,61,22)" stroke="rgb(118,61,22)" points="361.30522775650024,108.13889898359776 317.07805728912354,97.31867401301861 332.2925341129303,96.28192465007305"></polygon><polygon fill="rgb(118,61,22)" stroke="rgb(118,61,22)" points="171.00943660736084,81.45334096252918 175.5888819694519,79.03478556871414 177.0557370185852,86.61389510333538"></polygon><polygon fill="rgb(118,61,22)" stroke="rgb(118,61,22)" points="175.5888819694519,79.03478556871414 171.49357318878174,46.094753593206406 213.42804598808289,52.572469770908356"></polygon><polygon fill="rgb(118,61,22)" stroke="rgb(118,61,22)" points="177.79237461090088,95.7297328710556 171.83137607574463,89.59431046247482 177.0557370185852,86.61389510333538"></polygon><polygon fill="rgb(118,61,22)" stroke="rgb(118,61,22)" points="213.42804598808289,52.572469770908356 255.9731389284134,69.81635607779026 225.62255835533142,97.94716882705688"></polygon><polygon fill="rgb(118,61,22)" stroke="rgb(118,61,22)" points="372.5080075263977,79.84509088099003 366.39981603622437,85.1674842685461 367.917197227478,77.46960927546024"></polygon><polygon fill="rgb(118,61,22)" stroke="rgb(118,61,22)" points="328.95275044441223,51.43417897820473 371.6141414642334,44.032251596450806 367.917197227478,77.46960927546024"></polygon><polygon fill="rgb(118,61,22)" stroke="rgb(118,61,22)" points="183.253032207489,15.841090083122253 255.9731389284134,69.81635607779026 213.42804598808289,52.572469770908356"></polygon><polygon fill="rgb(118,61,22)" stroke="rgb(118,61,22)" points="213.42804598808289,52.572469770908356 171.49357318878174,46.094753593206406 183.253032207489,15.841090083122253"></polygon><polygon fill="rgb(118,61,22)" stroke="rgb(118,61,22)" points="182.00113821029663,109.2415542602539 173.50935792922974,97.99841766059399 177.79237461090088,95.7297328710556"></polygon><polygon fill="rgb(118,61,22)" stroke="rgb(118,61,22)" points="317.07805728912354,97.31867401301861 285.85510128736496,69.55643980205059 328.95275044441223,51.43417897820473"></polygon><polygon fill="rgb(118,61,22)" stroke="rgb(118,61,22)" points="365.60748863220215,94.40761329233646 366.39981603622437,85.1674842685461 371.63424491882324,88.10663641989231"></polygon><polygon fill="rgb(118,61,22)" stroke="rgb(118,61,22)" points="328.95275044441223,51.43417897820473 285.85510128736496,69.55643980205059 358.9303774833679,13.682666510343552"></polygon><polygon fill="rgb(118,61,22)" stroke="rgb(118,61,22)" points="358.9303774833679,13.682666510343552 371.6141414642334,44.032251596450806 328.95275044441223,51.43417897820473"></polygon><polygon fill="rgb(226,118,27)" stroke="rgb(226,118,27)" points="238.76852142810822,183.94568602740765 173.65467834472656,208.24658805131912 224.20447850227356,183.6761799454689"></polygon><polygon fill="rgb(226,118,27)" stroke="rgb(226,118,27)" points="224.20447850227356,183.6761799454689 236.4269289970398,181.4054964631796 238.76852142810822,183.94568602740765"></polygon><polygon fill="rgb(118,61,22)" stroke="rgb(118,61,22)" points="361.30522775650024,108.13889898359776 365.60748863220215,94.40761329233646 369.89837646484375,96.64484414458275"></polygon><polygon fill="rgb(246,133,27)" stroke="rgb(246,133,27)" points="182.00113821029663,109.2415542602539 225.62255835533142,97.94716882705688 211.23032093048096,107.12681584060192"></polygon><polygon fill="rgb(226,118,27)" stroke="rgb(226,118,27)" points="317.43336963653564,183.55919763445854 370.54599142074585,208.31678527593613 304.72200191020966,183.86416679620743"></polygon><polygon fill="rgb(226,118,27)" stroke="rgb(226,118,27)" points="304.72200191020966,183.86416679620743 306.2228808403015,181.3076075464487 317.43336963653564,183.55919763445854"></polygon><polygon fill="rgb(246,133,27)" stroke="rgb(246,133,27)" points="361.30522775650024,108.13889898359776 330.05197978019714,106.38102715462446 317.07805728912354,97.31867401301861"></polygon><polygon fill="rgb(228,118,27)" stroke="rgb(228,118,27)" points="257.41991382837296,104.93553924560547 211.23032093048096,107.12681584060192 225.62255835533142,97.94716882705688"></polygon><polygon fill="rgb(228,118,27)" stroke="rgb(228,118,27)" points="225.62255835533142,97.94716882705688 255.9731389284134,69.81635607779026 257.41991382837296,104.93553924560547"></polygon><polygon fill="rgb(246,133,27)" stroke="rgb(246,133,27)" points="211.23032093048096,107.12681584060192 163.7614278793335,156.95292501151562 182.00113821029663,109.2415542602539"></polygon><polygon fill="rgb(228,118,27)" stroke="rgb(228,118,27)" points="282.79990816116333,104.77308471500874 285.85510128736496,69.55643980205059 317.07805728912354,97.31867401301861"></polygon><polygon fill="rgb(228,118,27)" stroke="rgb(228,118,27)" points="317.07805728912354,97.31867401301861 330.05197978019714,106.38102715462446 282.79990816116333,104.77308471500874"></polygon><polygon fill="rgb(228,118,27)" stroke="rgb(228,118,27)" points="224.20447850227356,183.6761799454689 173.65467834472656,208.24658805131912 163.7614278793335,156.95292501151562"></polygon><polygon fill="rgb(246,133,27)" stroke="rgb(246,133,27)" points="202.76160287857056,144.06027218326926 163.7614278793335,156.95292501151562 211.23032093048096,107.12681584060192"></polygon><polygon fill="rgb(228,118,27)" stroke="rgb(228,118,27)" points="163.7614278793335,156.95292501151562 202.76160287857056,144.06027218326926 224.20447850227356,183.6761799454689"></polygon><polygon fill="rgb(246,133,27)" stroke="rgb(246,133,27)" points="330.05197978019714,106.38102715462446 361.30522775650024,108.13889898359776 380.45120668411255,156.29896058142185"></polygon><polygon fill="rgb(228,118,27)" stroke="rgb(228,118,27)" points="380.45120668411255,156.29896058142185 370.54599142074585,208.31678527593613 317.43336963653564,183.55919763445854"></polygon><polygon fill="rgb(246,133,27)" stroke="rgb(246,133,27)" points="255.9731389284134,69.81635607779026 285.85510128736496,69.55643980205059 282.79990816116333,104.77308471500874"></polygon><polygon fill="rgb(246,133,27)" stroke="rgb(246,133,27)" points="282.79990816116333,104.77308471500874 257.41991382837296,104.93553924560547 255.9731389284134,69.81635607779026"></polygon><polygon fill="rgb(228,118,27)" stroke="rgb(228,118,27)" points="317.43336963653564,183.55919763445854 338.50118613243103,143.5368165113032 380.45120668411255,156.29896058142185"></polygon><polygon fill="rgb(246,133,27)" stroke="rgb(246,133,27)" points="330.05197978019714,106.38102715462446 380.45120668411255,156.29896058142185 338.50118613243103,143.5368165113032"></polygon><polygon fill="rgb(205,97,22)" stroke="rgb(205,97,22)" points="229.14530777931213,122.92612050846219 211.23032093048096,107.12681584060192 257.41991382837296,104.93553924560547"></polygon><polygon fill="rgb(246,133,27)" stroke="rgb(246,133,27)" points="211.23032093048096,107.12681584060192 229.07837462425232,140.69488214701414 202.76160287857056,144.06027218326926"></polygon><polygon fill="rgb(228,117,31)" stroke="rgb(228,117,31)" points="211.23032093048096,107.12681584060192 229.14530777931213,122.92612050846219 229.07837462425232,140.69488214701414"></polygon><polygon fill="rgb(205,97,22)" stroke="rgb(205,97,22)" points="282.79990816116333,104.77308471500874 330.05197978019714,106.38102715462446 311.4179620742798,122.49549235776067"></polygon><polygon fill="rgb(246,133,27)" stroke="rgb(246,133,27)" points="338.50118613243103,143.5368165113032 311.2303879261017,140.36051162704825 330.05197978019714,106.38102715462446"></polygon><polygon fill="rgb(228,117,31)" stroke="rgb(228,117,31)" points="330.05197978019714,106.38102715462446 311.2303879261017,140.36051162704825 311.4179620742798,122.49549235776067"></polygon><polygon fill="rgb(205,97,22)" stroke="rgb(205,97,22)" points="224.20447850227356,183.6761799454689 202.76160287857056,144.06027218326926 229.07837462425232,140.69488214701414"></polygon><polygon fill="rgb(205,97,22)" stroke="rgb(205,97,22)" points="317.43336963653564,183.55919763445854 311.2303879261017,140.36051162704825 338.50118613243103,143.5368165113032"></polygon><polygon fill="rgb(205,97,22)" stroke="rgb(205,97,22)" points="257.41991382837296,104.93553924560547 246.0611002445221,114.94105786085129 229.14530777931213,122.92612050846219"></polygon><polygon fill="rgb(205,97,22)" stroke="rgb(205,97,22)" points="311.4179620742798,122.49549235776067 294.297594666481,114.66365498304367 282.79990816116333,104.77308471500874"></polygon><polygon fill="rgb(246,133,27)" stroke="rgb(246,133,27)" points="229.07837462425232,140.69488214701414 229.14530777931213,122.92612050846219 252.62026572227478,126.77417524904013"></polygon><polygon fill="rgb(35,52,71)" stroke="rgb(35,52,71)" points="252.62026572227478,126.77417524904013 229.14530777931213,122.92612050846219 246.0611002445221,114.94105786085129"></polygon><polygon fill="rgb(205,97,22)" stroke="rgb(205,97,22)" points="246.0611002445221,114.94105786085129 257.41991382837296,104.93553924560547 252.62026572227478,126.77417524904013"></polygon><polygon fill="rgb(205,97,22)" stroke="rgb(205,97,22)" points="294.297594666481,114.66365498304367 287.27871161699295,126.60176938399673 282.79990816116333,104.77308471500874"></polygon><polygon fill="rgb(228,117,31)" stroke="rgb(228,117,31)" points="252.62026572227478,126.77417524904013 257.41991382837296,104.93553924560547 258.03013879060745,115.83113060891628"></polygon><polygon fill="rgb(246,133,27)" stroke="rgb(246,133,27)" points="258.03013879060745,115.83113060891628 257.41991382837296,104.93553924560547 282.79990816116333,104.77308471500874"></polygon><polygon fill="rgb(35,52,71)" stroke="rgb(35,52,71)" points="287.27871161699295,126.60176938399673 294.297594666481,114.66365498304367 311.4179620742798,122.49549235776067"></polygon><polygon fill="rgb(246,133,27)" stroke="rgb(246,133,27)" points="282.79990816116333,104.77308471500874 281.54075199365616,115.69739846885204 258.03013879060745,115.83113060891628"></polygon><polygon fill="rgb(226,118,27)" stroke="rgb(226,118,27)" points="287.27871161699295,126.60176938399673 281.54075199365616,115.69739846885204 282.79990816116333,104.77308471500874"></polygon><polygon fill="rgb(246,133,27)" stroke="rgb(246,133,27)" points="311.2303879261017,140.36051162704825 287.27871161699295,126.60176938399673 311.4179620742798,122.49549235776067"></polygon><polygon fill="rgb(192,173,158)" stroke="rgb(192,173,158)" points="233.27405881881714,185.88952837884426 224.20447850227356,183.6761799454689 250.00967407226562,171.10462200641632"></polygon><polygon fill="rgb(192,173,158)" stroke="rgb(192,173,158)" points="287.3009784221649,171.02723732590675 317.43336963653564,183.55919763445854 307.32105231285095,185.80740170180798"></polygon><polygon fill="rgb(228,118,27)" stroke="rgb(228,118,27)" points="252.12823975086212,137.5277727190405 224.20447850227356,183.6761799454689 229.07837462425232,140.69488214701414"></polygon><polygon fill="rgb(215,193,179)" stroke="rgb(215,193,179)" points="249.5608583688736,157.55879148840904 250.00967407226562,171.10462200641632 224.20447850227356,183.6761799454689"></polygon><polygon fill="rgb(215,193,179)" stroke="rgb(215,193,179)" points="224.20447850227356,183.6761799454689 252.12823975086212,137.5277727190405 249.5608583688736,157.55879148840904"></polygon><polygon fill="rgb(228,118,27)" stroke="rgb(228,118,27)" points="284.37249076366425,137.39005250111222 311.2303879261017,140.36051162704825 317.43336963653564,183.55919763445854"></polygon><polygon fill="rgb(215,193,179)" stroke="rgb(215,193,179)" points="317.43336963653564,183.55919763445854 286.9763694405556,157.4479874894023 284.37249076366425,137.39005250111222"></polygon><polygon fill="rgb(215,193,179)" stroke="rgb(215,193,179)" points="286.9763694405556,157.4479874894023 317.43336963653564,183.55919763445854 287.3009784221649,171.02723732590675"></polygon><polygon fill="rgb(246,133,27)" stroke="rgb(246,133,27)" points="252.12823975086212,137.5277727190405 229.07837462425232,140.69488214701414 252.62026572227478,126.77417524904013"></polygon><polygon fill="rgb(192,173,158)" stroke="rgb(192,173,158)" points="251.71872103214264,185.86907117068768 233.27405881881714,185.88952837884426 251.44990825653076,178.5829660743475"></polygon><polygon fill="rgb(192,173,158)" stroke="rgb(192,173,158)" points="250.00967407226562,171.10462200641632 251.44990825653076,178.5829660743475 233.27405881881714,185.88952837884426"></polygon><polygon fill="rgb(192,173,158)" stroke="rgb(192,173,158)" points="288.7420546412468,185.82800783216953 251.71872103214264,185.86907117068768 251.44990825653076,178.5829660743475"></polygon><polygon fill="rgb(246,133,27)" stroke="rgb(246,133,27)" points="287.27871161699295,126.60176938399673 311.2303879261017,140.36051162704825 284.37249076366425,137.39005250111222"></polygon><polygon fill="rgb(228,117,31)" stroke="rgb(228,117,31)" points="258.03013879060745,115.83113060891628 256.30798000097275,134.68672307021916 252.62026572227478,126.77417524904013"></polygon><polygon fill="rgb(192,173,158)" stroke="rgb(192,173,158)" points="251.44990825653076,178.5829660743475 285.6318820118904,178.52876231074333 288.7420546412468,185.82800783216953"></polygon><polygon fill="rgb(192,173,158)" stroke="rgb(192,173,158)" points="288.7420546412468,185.82800783216953 285.6318820118904,178.52876231074333 307.32105231285095,185.80740170180798"></polygon><polygon fill="rgb(246,133,27)" stroke="rgb(246,133,27)" points="252.62026572227478,126.77417524904013 256.30798000097275,134.68672307021916 252.12823975086212,137.5277727190405"></polygon><polygon fill="rgb(192,173,158)" stroke="rgb(192,173,158)" points="307.32105231285095,185.80740170180798 285.6318820118904,178.52876231074333 287.3009784221649,171.02723732590675"></polygon><polygon fill="rgb(228,117,31)" stroke="rgb(228,117,31)" points="281.54075199365616,115.69739846885204 287.27871161699295,126.60176938399673 280.1924196779728,134.58029880467802"></polygon><polygon fill="rgb(246,133,27)" stroke="rgb(246,133,27)" points="284.37249076366425,137.39005250111222 280.1924196779728,134.58029880467802 287.27871161699295,126.60176938399673"></polygon><polygon fill="rgb(246,133,27)" stroke="rgb(246,133,27)" points="258.03013879060745,115.83113060891628 281.54075199365616,115.69739846885204 280.1924196779728,134.58029880467802"></polygon><polygon fill="rgb(246,133,27)" stroke="rgb(246,133,27)" points="280.1924196779728,134.58029880467802 256.30798000097275,134.68672307021916 258.03013879060745,115.83113060891628"></polygon><polygon fill="rgb(192,173,158)" stroke="rgb(192,173,158)" points="251.44990825653076,178.5829660743475 250.00967407226562,171.10462200641632 249.5608583688736,157.55879148840904"></polygon><polygon fill="rgb(192,173,158)" stroke="rgb(192,173,158)" points="286.9763694405556,157.4479874894023 287.3009784221649,171.02723732590675 285.6318820118904,178.52876231074333"></polygon><polygon fill="rgb(192,173,158)" stroke="rgb(192,173,158)" points="249.5608583688736,157.55879148840904 251.57712137699127,153.12044341862202 251.44990825653076,178.5829660743475"></polygon><polygon fill="rgb(192,173,158)" stroke="rgb(192,173,158)" points="284.58015924692154,153.0131390914321 285.6318820118904,178.52876231074333 251.44990825653076,178.5829660743475"></polygon><polygon fill="rgb(192,173,158)" stroke="rgb(192,173,158)" points="251.44990825653076,178.5829660743475 251.57712137699127,153.12044341862202 284.58015924692154,153.0131390914321"></polygon><polygon fill="rgb(192,173,158)" stroke="rgb(192,173,158)" points="285.6318820118904,178.52876231074333 284.58015924692154,153.0131390914321 286.9763694405556,157.4479874894023"></polygon><polygon fill="rgb(22,22,22)" stroke="rgb(22,22,22)" points="251.57712137699127,153.12044341862202 249.5608583688736,157.55879148840904 252.12823975086212,137.5277727190405"></polygon><polygon fill="rgb(22,22,22)" stroke="rgb(22,22,22)" points="284.37249076366425,137.39005250111222 286.9763694405556,157.4479874894023 284.58015924692154,153.0131390914321"></polygon><polygon fill="rgb(22,22,22)" stroke="rgb(22,22,22)" points="252.12823975086212,137.5277727190405 253.0003811120987,136.68512875400484 251.57712137699127,153.12044341862202"></polygon><polygon fill="rgb(22,22,22)" stroke="rgb(22,22,22)" points="255.68831431865692,133.74740850925446 253.0003811120987,136.68512875400484 252.12823975086212,137.5277727190405"></polygon><polygon fill="rgb(22,22,22)" stroke="rgb(22,22,22)" points="284.58015924692154,153.0131390914321 282.7162518501282,136.5565765593201 284.37249076366425,137.39005250111222"></polygon><polygon fill="rgb(22,22,22)" stroke="rgb(22,22,22)" points="284.37249076366425,137.39005250111222 282.7162518501282,136.5565765593201 280.03600081801414,133.63742015324533"></polygon><polygon fill="rgb(22,22,22)" stroke="rgb(22,22,22)" points="284.58015924692154,153.0131390914321 251.57712137699127,153.12044341862202 253.0003811120987,136.68512875400484"></polygon><polygon fill="rgb(22,22,22)" stroke="rgb(22,22,22)" points="253.0003811120987,136.68512875400484 282.7162518501282,136.5565765593201 284.58015924692154,153.0131390914321"></polygon><polygon fill="rgb(22,22,22)" stroke="rgb(22,22,22)" points="253.0003811120987,136.68512875400484 255.68831431865692,133.74740850925446 280.03600081801414,133.63742015324533"></polygon><polygon fill="rgb(22,22,22)" stroke="rgb(22,22,22)" points="280.03600081801414,133.63742015324533 282.7162518501282,136.5565765593201 253.0003811120987,136.68512875400484"></polygon></svg>
